HIERARCHY
ROOT Hips
{
 OFFSET 0.000000 0.000000 0.000000
 CHANNELS 6 Xposition Yposition Zposition Yrotation Xrotation Zrotation
 JOINT Chest
 {
  OFFSET 0.000000 11.395451 -0.039534
  CHANNELS 3 Yrotation Xrotation Zrotation
  JOINT Chest2
  {
   OFFSET 0.000000 9.398669 0.071813
   CHANNELS 3 Yrotation Xrotation Zrotation
   JOINT Chest3
   {
    OFFSET 0.000000 8.489801 0.000000
    CHANNELS 3 Yrotation Xrotation Zrotation
    JOINT Chest4
    {
     OFFSET 0.000000 8.489801 0.000000
     CHANNELS 3 Yrotation Xrotation Zrotation
     JOINT Neck
     {
      OFFSET 0.000000 12.404889 0.000000
      CHANNELS 3 Yrotation Xrotation Zrotation
      JOINT Head
      {
       OFFSET 0.000000 8.903270 0.092239
       CHANNELS 3 Yrotation Xrotation Zrotation
       End Site
       {
        OFFSET 0.000000 17.592497 0.007158
       }
      }
     }
     JOINT RightCollar
     {
      OFFSET -3.196775 6.966722 0.000000
      CHANNELS 3 Yrotation Xrotation Zrotation
      JOINT RightShoulder
      {
       OFFSET -15.955896 0.000000 0.000000
       CHANNELS 3 Yrotation Xrotation Zrotation
       JOINT RightElbow
       {
        OFFSET -24.792472 0.000000 0.000000
        CHANNELS 3 Yrotation Xrotation Zrotation
        JOINT RightWrist
        {
         OFFSET -20.900115 0.000000 0.025002
         CHANNELS 3 Yrotation Xrotation Zrotation
         End Site
         {
          OFFSET -16.056692 0.000000 0.000000
         }
        }
       }
      }
     }
     JOINT LeftCollar
     {
      OFFSET 3.196775 6.966722 0.000000
      CHANNELS 3 Yrotation Xrotation Zrotation
      JOINT LeftShoulder
      {
       OFFSET 15.955896 0.000000 0.000000
       CHANNELS 3 Yrotation Xrotation Zrotation
       JOINT LeftElbow
       {
        OFFSET 24.792472 0.000000 0.000000
        CHANNELS 3 Yrotation Xrotation Zrotation
        JOINT LeftWrist
        {
         OFFSET 20.900115 0.000000 0.025002
         CHANNELS 3 Yrotation Xrotation Zrotation
         End Site
         {
          OFFSET 16.056692 0.000000 0.000000
         }
        }
       }
      }
     }
    }
   }
  }
 }
 JOINT RightHip
 {
  OFFSET -9.568995 0.193718 0.019767
  CHANNELS 3 Yrotation Xrotation Zrotation
  JOINT RightKnee
  {
   OFFSET 0.000000 -56.649296 0.015402
   CHANNELS 3 Yrotation Xrotation Zrotation
   JOINT RightAnkle
   {
    OFFSET 0.000000 -41.365147 0.021264
    CHANNELS 3 Yrotation Xrotation Zrotation
    JOINT RightToe
    {
     OFFSET 0.000000 -7.465940 17.672538
     CHANNELS 3 Yrotation Xrotation Zrotation
     End Site
     {
      OFFSET 0.000000 -1.736315 7.837145
     }
    }
   }
  }
 }
 JOINT LeftHip
 {
  OFFSET 9.568995 0.193718 0.019767
  CHANNELS 3 Yrotation Xrotation Zrotation
  JOINT LeftKnee
  {
   OFFSET 0.000000 -56.649296 0.015402
   CHANNELS 3 Yrotation Xrotation Zrotation
   JOINT LeftAnkle
   {
    OFFSET 0.000000 -41.365147 0.021264
    CHANNELS 3 Yrotation Xrotation Zrotation
    JOINT LeftToe
    {
     OFFSET 0.000000 -7.465940 17.672538
     CHANNELS 3 Yrotation Xrotation Zrotation
     End Site
     {
      OFFSET 0.000000 -1.736315 7.837145
     }
    }
   }
  }
 }
}
MOTION
Frames: 11
Frame Time: 0.016667
-134.043255 101.560843 376.788094 -32.926778 5.647467 -6.506005 -1.271146 6.089717 4.717431 -0.626107 2.693544 2.110291 -0.626107 2.693544 2.110291 -0.478807 2.018027 1.585190 -1.272047 15.827746 0.704967 -2.629146 -6.763996 1.779991 -1.759193 5.841809 6.378458 14.540042 -23.283380 48.978046 47.068749 -40.174105 20.618602 -12.835685 -14.218632 10.305143 1.406176 9.200100 -4.594615 -1.605391 -24.361996 -53.799314 -35.080577 -54.584511 -45.659157 14.737822 -17.692634 5.909733 3.823601 -9.004385 7.633799 -7.431689 32.384649 0.009506 -0.030931 -25.354073 1.166533 0.116972 -4.366113 -3.067790 8.805999 -32.913627 0.153836 -0.523988 7.361637 0.796685 -0.518139 2.662004 0.363262 -0.000000 -0.000000 0.000000
-134.630769 101.333758 378.260489 -34.276533 6.041550 -6.311287 -0.799594 6.111156 4.403794 -0.413019 2.708267 1.964802 -0.413064 2.708210 1.964742 -0.318478 2.029833 1.475081 -1.205212 15.744173 0.729093 -2.515491 -6.920311 1.802714 -1.778373 6.308921 6.331821 14.363724 -23.539809 49.359196 46.620065 -40.055953 20.722708 -12.084366 -14.305710 10.362964 1.242484 9.357667 -4.534421 -1.219744 -24.647797 -54.082215 -35.575231 -54.253175 -45.191834 14.768762 -17.495561 5.703223 3.697896 -10.322020 6.669700 -8.041989 36.291658 -0.515570 2.077923 -24.739321 2.702298 0.349489 -8.110534 -4.723583 9.858571 -33.518965 -0.172738 -2.722541 8.832567 0.707562 1.688795 4.743294 -0.209406 0.000000 -0.000000 -0.000000
-135.179658 101.145804 379.736246 -35.904151 6.509974 -6.025224 -0.282153 6.108891 3.998033 -0.178010 2.712429 1.777913 -0.178051 2.712373 1.777856 -0.141430 2.033757 1.333902 -1.092160 15.658965 0.724340 -2.304928 -7.081631 1.754492 -1.804566 6.698042 6.303860 14.478259 -23.683819 49.690516 46.065656 -40.001828 20.767633 -11.242325 -14.412627 10.396517 1.016279 9.654546 -4.446447 -0.515435 -24.987196 -54.491177 -36.178479 -53.905281 -44.690114 14.767445 -17.271942 5.462266 3.333140 -12.120896 5.525977 -8.752892 40.881287 -1.525558 4.895760 -23.402472 4.445340 0.808975 -12.831345 -6.840650 11.695659 -34.069729 -0.716358 -5.132791 10.232070 0.371719 4.592781 6.800236 -1.444700 0.000000 0.000000 -0.000000
-135.642934 100.963174 381.107331 -37.420399 7.117246 -5.682448 0.162462 6.136497 3.575817 0.024748 2.728525 1.584753 0.024748 2.728525 1.584753 0.011477 2.046474 1.188230 -0.992611 15.518005 0.666404 -2.100915 -7.347172 1.612863 -1.784668 7.133252 6.201483 14.720100 -24.043005 49.960544 45.662657 -39.931585 20.712995 -10.460994 -14.537619 10.434136 0.766999 10.012363 -4.334606 0.003642 -25.412433 -54.770530 -36.809835 -53.709295 -44.084839 14.682950 -17.107114 5.168161 2.558261 -14.509609 4.435837 -9.283579 45.737644 -2.920994 7.683159 -21.096965 6.240990 1.405840 -17.472501 -9.129584 12.718466 -34.841316 -0.989857 -5.843685 11.695484 0.090450 6.448741 8.160021 -2.322645 0.000000 0.000000 0.000000
-135.972950 100.752714 382.324077 -38.712123 7.901132 -5.273152 0.472057 6.231846 3.148378 0.167174 2.772908 1.390839 0.167188 2.772931 1.390862 0.119058 2.080104 1.042198 -0.916289 15.272219 0.535992 -1.914764 -7.808124 1.345905 -1.670527 7.670301 5.946734 15.016852 -24.803276 50.183824 45.509117 -39.809623 20.584662 -9.801845 -14.666930 10.478044 0.534385 10.427647 -4.177727 0.232367 -25.969810 -54.869077 -37.513665 -53.736626 -43.306115 14.527712 -17.024355 4.798019 1.261440 -17.732542 3.448104 -9.766981 51.027498 -4.921771 10.537322 -17.081395 8.410413 2.198414 -22.587365 -11.873593 11.658034 -36.071053 -0.385997 -3.018558 13.369078 0.088142 6.256676 8.431944 -2.322504 0.000000 -0.000000 0.000000
-136.217353 100.547577 383.436153 -39.888269 8.825558 -4.811956 0.703047 6.356720 2.703649 0.274891 2.829273 1.190085 0.274897 2.829283 1.190095 0.200620 2.122514 0.891123 -0.856434 14.969326 0.353688 -1.739204 -8.375321 0.987856 -1.520920 8.250394 5.611422 15.442867 -25.780485 50.336750 45.505288 -39.673740 20.356708 -9.201464 -14.810130 10.519385 0.282679 10.905140 -3.996454 0.275336 -26.612119 -54.820729 -38.255041 -53.915564 -42.412464 14.289416 -16.999163 4.373893 -0.451835 -21.568034 2.666413 -10.329694 56.533934 -7.556503 13.502057 -12.116894 10.676590 3.109755 -27.646570 -14.789911 9.695925 -37.518172 0.650246 1.557600 15.113078 0.303074 5.116483 7.984528 -1.880337 0.000000 -0.000000 -0.000000
-136.472092 100.413416 384.484531 -40.893694 9.836810 -4.363851 0.918149 6.455161 2.284170 0.375576 2.873440 1.000735 0.375576 2.873440 1.000735 0.276915 2.155703 0.748627 -0.847473 14.701863 0.155237 -1.650316 -8.875547 0.616820 -1.438423 8.827282 5.332191 16.055467 -26.745921 50.349473 45.611007 -39.555331 19.909099 -8.623535 -14.997398 10.566226 -0.065012 11.376502 -3.851058 -0.061273 -27.229910 -54.471579 -38.833847 -54.204267 -41.529306 13.880763 -17.046220 3.943984 -2.477310 -25.379149 2.364606 -10.189605 61.364904 -9.790399 15.382483 -8.162955 12.194819 3.325390 -30.051683 -16.384708 9.001780 -38.834675 0.892207 4.343453 16.684176 0.474479 4.518406 7.236167 -1.429028 0.000000 0.000000 0.000000
-136.791506 100.387160 385.503014 -41.692296 10.920601 -3.901492 1.140873 6.490582 1.878464 0.479889 2.889295 0.817516 0.479886 2.889304 0.817517 0.355971 2.167634 0.610736 -0.914462 14.518864 -0.059976 -1.695286 -9.217706 0.241163 -1.483680 9.429902 5.182161 16.931813 -27.625133 50.209489 45.871249 -39.420821 19.115704 -8.080384 -15.252750 10.637149 -0.580882 11.850777 -3.760824 -1.020618 -27.689135 -53.561214 -39.157952 -54.659773 -40.680962 13.184188 -17.229146 3.514094 -5.110647 -28.898943 2.741306 -7.536514 65.415708 -9.916588 15.165574 -5.935676 12.660006 2.134462 -28.237689 -16.075296 10.944543 -39.843276 -0.636070 3.273116 18.037464 0.308017 5.358102 6.159950 -1.157403 0.000000 0.000000 0.000000
-137.121254 100.431879 386.457800 -42.317552 12.087038 -3.445299 1.350092 6.503693 1.499422 0.577972 2.894854 0.646347 0.577962 2.894862 0.646343 0.430312 2.171773 0.481912 -1.032919 14.372805 -0.290339 -1.830007 -9.490832 -0.144076 -1.586812 10.032658 5.097477 18.009476 -28.485328 49.894154 46.229283 -39.305073 18.108416 -7.559499 -15.550461 10.710839 -1.194435 12.318148 -3.697707 -2.356604 -28.088268 -52.310416 -39.306647 -55.236287 -39.864016 12.317341 -17.486297 3.081320 -8.207746 -32.320792 3.710478 -2.751232 68.889113 -8.040751 13.558090 -4.718236 12.502067 0.310031 -23.694448 -14.649683 14.316915 -40.631472 -3.229852 0.365438 19.236163 -0.021779 6.730989 4.783473 -0.935041 0.000000 0.000000 0.000000
-137.394270 100.502442 387.288447 -42.825086 13.314773 -3.130292 1.546472 6.556020 1.226099 0.668812 2.917844 0.522131 0.668812 2.917844 0.522131 0.499006 2.188959 0.388318 -1.161127 14.212495 -0.497652 -1.991441 -9.790221 -0.482137 -1.650525 10.508972 5.013512 19.130705 -29.307862 49.326626 46.500203 -39.347082 17.152807 -6.987903 -15.847577 10.737313 -1.772051 12.679294 -3.647300 -3.549199 -28.697445 -51.287262 -39.337028 -55.737050 -39.161958 11.546883 -17.645122 2.676984 -10.970218 -35.689184 4.948322 1.204206 71.450690 -6.304232 11.772032 -4.273059 11.966543 -0.995528 -18.413392 -12.364538 17.505815 -41.402753 -5.711858 -1.822753 20.239165 -0.187287 7.424425 3.597272 -0.706017 0.000000 0.000000 0.000000
-137.564304 100.585007 387.948429 -43.173897 14.600194 -3.021208 1.734638 6.677025 1.119661 0.753476 2.971746 0.471766 0.753478 2.971749 0.471769 0.562685 2.229396 0.350082 -1.302421 14.018749 -0.681667 -2.186375 -10.151524 -0.770841 -1.657963 10.772080 4.901418 20.217568 -30.041402 48.438899 46.628670 -39.658727 16.358259 -6.328721 -16.113551 10.672269 -2.276021 12.852953 -3.601527 -4.403889 -29.700019 -50.753529 -39.135556 -56.092910 -38.718935 10.995819 -17.595728 2.316789 -13.214080 -39.088594 6.373249 1.860660 73.032104 -6.957941 10.110972 -4.821751 10.967816 -1.299667 -12.142340 -8.335258 20.136232 -42.314524 -7.779676 -2.158623 21.004369 0.050009 6.602333 2.803568 -0.364034 -0.000000 -0.000000 -0.000000
